<svg width="921" height="164" viewBox="0 0 921 164" fill="none" xmlns="http://www.w3.org/2000/svg">
<g clip-path="url(#clip0)">
<path d="M30.54 102.76C36.5913 102.754 42.5082 104.544 47.5413 107.904C52.5744 111.263 56.4972 116.041 58.8129 121.631C61.1286 127.222 61.733 133.374 60.5495 139.309C59.3661 145.243 56.448 150.693 52.1649 154.967C47.8817 159.242 42.4263 162.15 36.4896 163.321C30.5529 164.493 24.4019 163.877 18.8158 161.55C13.2297 159.223 8.45981 155.291 5.11026 150.251C1.7607 145.212 -0.017802 139.291 1.04299e-05 133.24C0.0655441 125.166 3.30606 117.442 9.02098 111.739C14.7359 106.035 22.466 102.81 30.54 102.76V102.76Z" fill="white"/>
<path d="M163.77 27.84C163.77 21.13 161.26 15.46 157.23 10.38C150.72 2.18004 142.12 -0.619974 131.78 0.120026C117.49 1.19003 107.16 11.5201 106 25.0201C105.06 35.8601 105.57 46.84 105.45 57.75C105.45 58.95 105.45 60.15 105.45 61.9C104.835 61.6258 104.249 61.2908 103.7 60.9C87.5934 44.6733 71.5 28.4534 55.42 12.24C50.99 7.75002 46.11 4.08004 40.04 1.95004C20.04 -5.04996 0.520007 8.51002 0.470007 29.86C0.420007 49.15 0.470007 68.44 0.470007 87.73V91.73C4.36001 89.24 7.61002 86.86 11.11 84.97C20.11 80.08 29.41 79.16 39.03 83.61C44.4 86.09 48.28 90.16 52.34 94.25C70.92 112.99 89.8 131.44 108.34 150.25C116.34 158.39 125.01 164.37 137.08 163.43C152.5 162.23 163.75 150.57 163.77 135.94C163.77 99.88 163.71 63.86 163.77 27.84Z" fill="#FAC045"/>
<path d="M212.12 127.13C202.787 127.13 195.577 124.877 190.49 120.37C185.403 115.863 182.87 109.383 182.89 100.93C182.89 91.6967 186.1 84.77 192.52 80.15C198.94 75.53 207.053 73.2267 216.86 73.24C224.86 73.24 231.73 74.7034 237.47 77.63C237.47 72.5567 236.033 69.1767 233.16 67.49C230.287 65.8034 226.08 64.9534 220.54 64.94C216.622 65.0613 212.722 65.5129 208.88 66.29C206.549 66.7952 204.175 67.0765 201.79 67.13C198.18 67.13 195.36 66.01 193.34 63.75C191.32 61.49 190.29 58.46 190.29 54.63C190.29 47.7634 194.29 42.6933 202.29 39.42C208.957 36.8333 217.237 35.5367 227.13 35.53C233.613 35.4006 240.071 36.371 246.23 38.4C250.926 39.9084 255.267 42.3545 258.99 45.59C262.209 48.6169 264.778 52.2679 266.54 56.32C268.348 60.2434 269.626 64.3897 270.34 68.65C270.99 73.016 271.301 77.4259 271.27 81.84V88.43C271.27 91.24 271.55 93.16 272.12 94.17C272.836 95.3432 273.819 96.3302 274.99 97.05C279.163 99.75 281.25 103.86 281.25 109.38C281.25 114.787 279.39 119.097 275.67 122.31C271.95 125.523 267.217 127.13 261.47 127.13C258.173 127.185 254.899 126.58 251.84 125.35C249.379 124.41 247.156 122.938 245.33 121.04C244.07 119.706 242.967 118.233 242.04 116.65C241.483 115.702 241.031 114.696 240.69 113.65H240.35C233.47 122.637 224.06 127.13 212.12 127.13ZM225.12 103.47C228.061 103.464 230.901 102.399 233.12 100.47C235.471 98.5724 237.011 95.8518 237.43 92.86C234.339 90.9352 230.761 89.9391 227.12 89.99C224.584 89.8816 222.076 90.5591 219.94 91.93C219.072 92.4794 218.36 93.2424 217.871 94.1458C217.383 95.0493 217.135 96.063 217.15 97.09C217.177 101.343 219.84 103.47 225.14 103.47H225.12Z" fill="white"/>
<path d="M300.34 125.61C294.34 125.61 289.72 123.943 286.48 120.61C283.24 117.277 281.607 112.743 281.58 107.01V51.75C281.58 47.25 282.913 43.6467 285.58 40.94C288.247 38.2333 291.937 36.88 296.65 36.88C301.157 36.88 304.733 38.12 307.38 40.6C308.726 41.8972 309.801 43.4495 310.541 45.1664C311.281 46.8833 311.672 48.7305 311.69 50.6V51.78H312.03C314.092 46.67 317.892 42.4521 322.76 39.87C327.882 36.992 333.665 35.4963 339.54 35.53C345.335 35.4581 351.046 36.9136 356.1 39.75C360.9 42.3882 364.612 46.6388 366.58 51.75H366.92C369.2 46.5469 373.196 42.2831 378.24 39.67C383.384 36.917 389.135 35.4939 394.97 35.53C416.71 35.53 427.583 50.6267 427.59 80.82V107.02C427.59 112.76 426.01 117.293 422.85 120.62C419.69 123.947 415.183 125.613 409.33 125.62C403.33 125.62 398.713 123.953 395.48 120.62C392.247 117.287 390.6 112.753 390.54 107.02V81.16C390.54 72.6 387.78 68.32 382.26 68.32C376.18 68.32 373.14 72.5433 373.14 80.99V106.99C373.14 112.73 371.563 117.263 368.41 120.59C365.257 123.917 360.75 125.583 354.89 125.59C348.89 125.59 344.27 123.923 341.03 120.59C337.79 117.257 336.157 112.723 336.13 106.99V81.16C336.13 72.6 333.463 68.32 328.13 68.32C324.87 68.32 322.47 69.4699 320.95 71.7799C319.43 74.0899 318.73 77.16 318.84 80.99L318.67 106.99C318.67 112.73 317.063 117.263 313.85 120.59C310.637 123.917 306.133 125.59 300.34 125.61Z" fill="white"/>
<path d="M513.7 114.71C505.08 122.99 493.277 127.13 478.29 127.13C463.303 127.13 451.447 122.99 442.72 114.71C433.993 106.417 429.627 95.3467 429.62 81.5C429.62 67.4133 433.987 56.23 442.72 47.95C451.453 39.67 463.253 35.53 478.12 35.53C492.88 35.53 504.653 39.67 513.44 47.95C522.227 56.23 526.623 67.4133 526.63 81.5C526.63 95.3267 522.32 106.397 513.7 114.71ZM478.12 96.37C479.812 96.4575 481.5 96.1402 483.044 95.4445C484.588 94.7489 485.945 93.6949 487 92.37C489.08 89.7033 490.12 86.0133 490.12 81.3C490.12 76.68 489.05 73.0133 486.91 70.3C485.84 68.9577 484.465 67.8901 482.9 67.1857C481.335 66.4813 479.624 66.1606 477.91 66.25C470.023 66.25 466.133 71.32 466.24 81.46C466.24 86.42 467.31 90.1367 469.45 92.61C470.517 93.8517 471.851 94.8353 473.353 95.4866C474.855 96.1379 476.485 96.4399 478.12 96.37Z" fill="white"/>
<path d="M548.26 125.61C542.26 125.61 537.64 123.943 534.4 120.61C531.16 117.277 529.527 112.743 529.5 107.01V51.75C529.5 47.25 530.833 43.6467 533.5 40.94C536.167 38.2333 539.847 36.88 544.54 36.88C549.04 36.88 552.617 37.98 555.27 40.18C556.604 41.3183 557.68 42.7293 558.423 44.3179C559.167 45.9066 559.561 47.6361 559.58 49.39V50.39H559.92C564.54 40.4834 571.807 35.5267 581.72 35.52C586.453 35.52 590.12 36.9567 592.72 39.83C595.294 42.6771 596.679 46.4027 596.59 50.24C596.662 54.2961 595.238 58.2368 592.59 61.31C589.923 64.41 586.063 65.96 581.01 65.96C571.43 65.96 566.643 71.93 566.65 83.87V107.03C566.65 112.77 565.043 117.303 561.83 120.63C558.617 123.957 554.093 125.617 548.26 125.61Z" fill="white"/>
<path d="M674.08 114.71C665.46 122.99 653.657 127.13 638.67 127.13C623.683 127.13 611.827 122.99 603.1 114.71C594.373 106.417 590.007 95.3467 590 81.5C590 67.4133 594.367 56.23 603.1 47.95C611.833 39.67 623.647 35.53 638.54 35.53C653.3 35.53 665.073 39.67 673.86 47.95C682.647 56.23 687.04 67.4133 687.04 81.5C687.013 95.3267 682.693 106.397 674.08 114.71ZM638.54 96.37C640.23 96.4583 641.917 96.1414 643.46 95.4456C645.003 94.7498 646.357 93.6953 647.41 92.37C649.497 89.7033 650.54 86.0133 650.54 81.3C650.54 76.68 649.47 73.0133 647.33 70.3C646.26 68.9577 644.885 67.8901 643.32 67.1857C641.755 66.4813 640.044 66.1606 638.33 66.25C630.45 66.25 626.563 71.32 626.67 81.46C626.67 86.42 627.74 90.1367 629.88 92.61C630.946 93.8504 632.278 94.8331 633.778 95.4843C635.278 96.1356 636.906 96.4384 638.54 96.37V96.37Z" fill="white"/>
<path d="M708.64 125.61C702.64 125.61 698.02 123.943 694.78 120.61C691.54 117.277 689.907 112.743 689.88 107.01V51.75C689.88 47.25 691.213 43.6467 693.88 40.94C696.52 38.23 700.22 36.88 704.95 36.88C709.45 36.88 713.027 38.12 715.68 40.6C717.023 41.8999 718.095 43.4528 718.835 45.1691C719.574 46.8854 719.967 48.7312 719.99 50.6V51.78H720.33C722.388 46.6677 726.189 42.4487 731.06 39.87C736.193 36.9957 741.987 35.5102 747.87 35.56C753.665 35.4882 759.376 36.9436 764.43 39.78C769.23 42.4182 772.942 46.6687 774.91 51.78H775.25C777.52 46.5724 781.504 42.2988 786.54 39.67C791.684 36.9171 797.435 35.4939 803.27 35.53C825.023 35.53 835.897 50.6267 835.89 80.82V107.02C835.89 112.76 834.313 117.293 831.16 120.62C828.007 123.947 823.5 125.613 817.64 125.62C811.64 125.62 807.02 123.953 803.78 120.62C800.54 117.287 798.907 112.753 798.88 107.02V81.16C798.88 72.6 796.12 68.32 790.6 68.32C784.52 68.32 781.477 72.5433 781.47 80.99V106.99C781.47 112.73 779.893 117.263 776.74 120.59C773.587 123.917 769.08 125.583 763.22 125.59C757.22 125.59 752.6 123.923 749.36 120.59C746.12 117.257 744.487 112.723 744.46 106.99V81.16C744.46 72.6 741.813 68.32 736.52 68.32C733.253 68.32 730.86 69.4733 729.34 71.78C727.82 74.0866 727.113 77.1567 727.22 80.99L727.06 106.99C727.06 112.73 725.453 117.263 722.24 120.59C719.027 123.917 714.493 125.59 708.64 125.61Z" fill="#FAC045"/>
<path d="M879.15 127.13C864.483 127.13 853.217 124.593 845.35 119.52C840.277 116.26 837.743 111.98 837.75 106.68C837.68 105.088 837.928 103.497 838.479 102.002C839.03 100.507 839.873 99.1359 840.96 97.97C842.092 96.8562 843.442 95.9888 844.926 95.4226C846.409 94.8564 847.994 94.6035 849.58 94.68C852.387 94.68 856.413 95.9467 861.66 98.48C866.907 101.013 871.217 102.28 874.59 102.28C879.43 102.28 881.86 100.99 881.86 98.4C881.866 97.5841 881.617 96.7867 881.147 96.1196C880.677 95.4526 880.01 94.9492 879.24 94.68C876.583 93.6048 873.84 92.7551 871.04 92.14C870.04 91.92 869.24 91.75 868.67 91.64C859.337 89.0467 852.183 85.5234 847.21 81.07C842.237 76.6167 839.76 70.5633 839.78 62.91C839.78 54.6833 843.3 48.0633 850.34 43.05C857.38 38.0367 867.047 35.53 879.34 35.53C892.52 35.53 902.83 37.9533 910.27 42.8C915.343 45.84 917.877 49.7833 917.87 54.63C917.948 56.3363 917.647 58.0386 916.99 59.6152C916.334 61.1918 915.336 62.6038 914.07 63.75C911.543 66.01 908.247 66.9133 904.18 66.46C902.38 66.3533 899.143 65.4233 894.47 63.67C889.797 61.9167 886.05 61.0433 883.23 61.05C878.94 61.05 876.81 62.23 876.81 64.6C876.778 65.3212 876.972 66.0344 877.364 66.6402C877.757 67.2461 878.329 67.7144 879 67.98C881.594 68.9957 884.27 69.7853 887 70.34C887.513 70.4221 888.021 70.5356 888.52 70.68C892.007 71.4667 894.767 72.1333 896.8 72.68C899.601 73.5284 902.337 74.5743 904.99 75.81C907.893 76.9917 910.58 78.6475 912.94 80.71C915.064 82.8308 916.782 85.3217 918.01 88.06C919.569 91.3907 920.349 95.0328 920.29 98.71C920.29 107.27 916.797 114.14 909.81 119.32C902.823 124.5 892.603 127.103 879.15 127.13Z" fill="#FAC045"/>
</g>
<defs>
<clipPath id="clip0">
<rect width="920.22" height="163.9" fill="white"/>
</clipPath>
</defs>
</svg>
